<svg width="1343" height="310" viewBox="0 0 1343 310" fill="none" xmlns="http://www.w3.org/2000/svg">
<path d="M61.7969 14.0938V50.5781H51.7969V14.0938H61.7969ZM61.7969 53.3906V72.375H23.4375V76.8281H63.75V84.7188H13.5938V65.2656H51.9531V61.125H13.4375V53.3906H61.7969ZM43.8281 18.4688V26.0469H37.9688V40.1875C40.8984 39.9922 43.7891 39.7188 46.5625 39.4062L47.0312 46.5156C32.8906 48.7812 16.7188 49.1719 4.375 49.1719L3.28125 41.3594L10.9375 41.2812V26.0469H5.15625V18.4688H43.8281ZM20.4688 41.0469L28.3594 40.8125V26.0469H20.4688V41.0469ZM135.728 68.7031V76.9062H70.65V68.7031H85.1813V51.2812C79.6734 48 76.3531 42.9609 76.3531 36.6719C76.3531 25.1875 87.6031 17.5312 103.072 17.5312C118.463 17.5312 129.791 25.1875 129.869 36.6719C129.83 42.8047 126.588 47.8047 121.275 51.125V68.7031H135.728ZM103.072 25.4219C92.9156 25.4219 86.1969 29.4844 86.1969 36.6719C86.1969 43.625 92.9156 47.9219 103.072 47.9219C113.15 47.9219 119.947 43.625 120.025 36.6719C119.947 29.4844 113.15 25.4219 103.072 25.4219ZM95.025 68.7031H111.197V54.875C108.658 55.3828 105.923 55.6562 103.072 55.6562C100.22 55.6562 97.525 55.4219 95.025 54.875V68.7031ZM195.597 14.1719V35.9688H205.206V44.0938H195.597V67.2188H185.597V14.1719H195.597ZM181.378 21.5938V29.4844H139.191V21.5938H155.363V14.0156H165.284V21.5938H181.378ZM160.284 31.9844C170.597 31.9844 177.784 37.5312 177.784 45.7344C177.784 53.9375 170.597 59.3281 160.284 59.3281C149.894 59.3281 142.628 53.9375 142.628 45.7344C142.628 37.5312 149.894 31.9844 160.284 31.9844ZM160.284 39.5625C155.519 39.6406 152.316 41.8281 152.394 45.7344C152.316 49.6406 155.519 51.75 160.284 51.75C165.05 51.75 168.331 49.6406 168.331 45.7344C168.331 41.8281 165.05 39.6406 160.284 39.5625ZM198.175 75.9688V83.9375H149.503V63.1562H159.425V75.9688H198.175ZM230.153 30.3438C230.153 37.375 234.216 44.4062 243.2 47.375L238.747 54.875C232.458 52.6484 228.161 48.5469 225.622 43.4688C223.122 49.0547 218.786 53.5469 212.262 55.9688L207.731 48.625C216.637 45.2656 220.7 37.9219 220.7 30.3438V29.9531H209.684V22.1406H220.7V14.7969H230.153V22.1406H241.091V29.9531H230.153V30.3438ZM268.825 14.1719V57.6094H259.372V40.0312H253.669V57.4531H244.294V15.2656H253.669V31.9844H259.372V14.1719H268.825ZM268.825 60.6562V85.1875H258.903V68.7031H219.684V60.6562H268.825Z" fill="white"/>
<path d="M518.531 15.6562V22.2969C518.531 28.9375 518.531 35.8906 516.5 44.9531L506.656 44.3281C507.32 41.2031 507.789 38.3516 508.062 35.7344L467.828 37.4531L466.578 29.3281L508.609 28.3906L508.688 23.7031H468.531V15.6562H518.531ZM525.797 47.9219V55.8125H461.266V47.9219H485.406V39.9531H495.406V47.9219H525.797ZM518.062 61.2031V84.9531H508.141V69.0156H467.828V61.2031H518.062ZM590.666 59.5625V85.1875H580.666V67.375H539.806V59.5625H590.666ZM590.666 14.0938V56.4375H580.666V14.0938H590.666ZM548.088 26.8281C548.088 32.5703 549.298 39.3672 553.634 44.4844C557.853 39.4062 558.947 32.6875 558.947 26.8281V26.75H555.041V18.7812H575.588V26.75H568.478V26.8281C568.478 34.875 570.978 43.4688 579.025 47.7656L573.869 54.7969C568.752 52.1016 565.588 47.6484 563.713 42.375C561.955 47.8047 558.869 52.6094 553.634 55.5781C548.478 52.6484 545.392 47.9609 543.634 42.6875C541.681 47.8438 538.517 52.1797 533.478 54.7969L528.166 47.7656C536.213 43.3906 538.869 34.7969 538.869 26.8281V26.75H531.056V18.7812H552.228V26.75H548.088V26.8281ZM654.284 14.0938V40.5H664.753V48.625H654.284V85.3438H644.284V14.0938H654.284ZM634.363 20.6562V28.7031H610.925V59.875C621.238 59.7578 629.753 59.2891 639.206 57.6094L640.3 65.9688C629.284 67.8438 619.597 68.1562 607.019 68.0781H601.003V20.6562H634.363Z" fill="white"/>
<path d="M1014.4 134.2C1008.93 141.667 1002.27 147.533 994.4 151.8C986.533 156.067 978 158.333 968.8 158.6V129.8C976.267 128.867 982.467 125.333 987.4 119.2C992.333 112.933 995.333 105.2 996.4 96H971V68.2H996.4V51.2H1028.8V68.2H1053.8V96H1028.4C1028 100.533 1027.33 104.533 1026.4 108L1061.2 135.8L1041.6 157.6L1014.4 134.2ZM1138.8 54V160.8H1107.2V120H1093V159H1061.8V54.8H1093V88.6H1107.2V54H1138.8ZM980.8 166.8H1138.8V226.8H1105.4V195H980.8V166.8ZM1332.48 132.4V159.2H1159.68V132.4H1216.88V118.6H1170.08V92.6H1288.48V80.6H1170.08V54H1322.08V126.2H1288.48V118.6H1250.88V132.4H1332.48ZM1168.88 170.2H1322.48V226.8H1288.28V196.6H1168.88V170.2Z" fill="white"/>
<path d="M132.531 207.344C132.531 214.375 136.594 221.406 145.578 224.375L141.125 231.875C134.836 229.648 130.539 225.547 128 220.469C125.5 226.055 121.164 230.547 114.641 232.969L110.109 225.625C119.016 222.266 123.078 214.922 123.078 207.344V206.953H112.062V199.141H123.078V191.797H132.531V199.141H143.469V206.953H132.531V207.344ZM171.203 191.172V234.609H161.75V217.031H156.047V234.453H146.672V192.266H156.047V208.984H161.75V191.172H171.203ZM171.203 237.656V262.188H161.281V245.703H122.062V237.656H171.203Z" fill="white"/>
<path d="M587.531 192.656V199.297C587.531 205.938 587.531 212.891 585.5 221.953L575.656 221.328C576.32 218.203 576.789 215.352 577.062 212.734L536.828 214.453L535.578 206.328L577.609 205.391L577.688 200.703H537.531V192.656H587.531ZM594.797 224.922V232.812H530.266V224.922H554.406V216.953H564.406V224.922H594.797ZM587.062 238.203V261.953H577.141V246.016H536.828V238.203H587.062Z" fill="white"/>
<rect x="1" y="145" width="284" height="164" rx="82" stroke="white" stroke-width="2"/>
<rect x="421" y="145" width="284" height="164" rx="82" stroke="white" stroke-width="2"/>
<rect x="344" y="44" width="46" height="21" fill="white"/>
<rect x="809" y="112" width="46" height="21" fill="white"/>
<rect x="809" y="156" width="46" height="21" fill="white"/>
<rect x="377" y="32" width="46" height="21" transform="rotate(90 377 32)" fill="white"/>
</svg>
